<svg width="107" height="36" viewBox="0 0 107 36" fill="none" xmlns="http://www.w3.org/2000/svg">
<path fill-rule="evenodd" clip-rule="evenodd" d="M33.0497 28.043V19.9966C33.0497 19.0018 32.7683 18.2014 32.206 17.5955C31.6434 16.9903 30.8971 16.6869 29.9673 16.6869C29.0153 16.6869 28.253 16.9903 27.6801 17.5955C27.1066 18.2014 26.8203 19.0018 26.8203 19.9966V28.043L21.207 28.0872V5.33105H26.8163L26.8203 13.2478C28.118 12.0796 29.7616 11.4957 31.7519 11.4957C33.8283 11.4957 35.4996 12.1558 36.7648 13.475C38.0302 14.7945 38.6628 16.4387 38.6628 18.4065V28.043H33.0497Z" fill="#241239"/>
<path fill-rule="evenodd" clip-rule="evenodd" d="M40.7068 28.043H46.3201V11.9824H40.7068V28.043ZM45.8008 9.44721C45.1732 10.0748 44.4163 10.3882 43.5296 10.3882C42.6424 10.3882 41.8855 10.0748 41.2584 9.44721C40.6307 8.82019 40.3176 8.06307 40.3176 7.17585C40.3176 6.28936 40.6307 5.53242 41.2584 4.90467C41.8855 4.27765 42.6424 3.96387 43.5296 3.96387C44.4163 3.96387 45.1732 4.27765 45.8008 4.90467C46.428 5.53242 46.7418 6.28936 46.7418 7.17585C46.7418 8.06307 46.428 8.82019 45.8008 9.44721Z" fill="#241239"/>
<path fill-rule="evenodd" clip-rule="evenodd" d="M10.1616 4.84436C11.9349 4.84436 13.5143 5.09878 14.8986 5.60689C16.2826 6.11519 17.3533 6.71551 18.1108 7.40749C18.6043 7.85191 19.3428 8.57709 19.3428 8.57709L15.4863 12.5137C15.4863 12.5137 14.7137 11.963 14.347 11.6904C12.8544 10.5874 11.4483 10.0358 10.1291 10.0358C9.35032 10.0358 8.70146 10.1817 8.18234 10.4737C7.66322 10.7656 7.40357 11.1606 7.40357 11.6579C7.40357 12.4367 7.98765 12.967 9.15563 13.2477L13.3088 14.1887C17.6348 15.162 19.7981 17.4446 19.7981 21.0347C19.7981 23.025 18.9756 24.7716 17.332 26.2747C15.6879 27.7785 13.3626 28.5298 10.3563 28.5298C8.3229 28.5298 6.53837 28.2377 5.00266 27.6536C3.46658 27.0697 2.23347 26.3236 1.30403 25.4149C0.914462 25.0257 0 24.1035 0 24.1035L4.43608 20.2267C4.43608 20.2267 5.28252 20.9472 5.61921 21.2944C7.00318 22.6358 8.6255 23.3059 10.486 23.3059C11.3945 23.3059 12.1027 23.1331 12.6112 22.7868C13.1193 22.4411 13.3737 22.03 13.3737 21.5539C13.3737 20.9916 13.141 20.5593 12.6762 20.2562C12.2106 19.9536 11.4699 19.6937 10.4535 19.4774L6.88445 18.6988C5.15368 18.3312 3.75348 17.5793 2.68294 16.4437C1.61204 15.3082 1.07668 13.8755 1.07668 12.1445C1.07668 10.0251 1.93105 8.27865 3.63999 6.90461C5.34838 5.53129 7.5223 4.84436 10.1616 4.84436Z" fill="#241239"/>
<path fill-rule="evenodd" clip-rule="evenodd" d="M79.3735 25.7831L77.074 22.1336C77.074 22.1336 76.7811 22.3761 76.1323 22.7868C75.6561 23.0899 75.2238 23.2413 74.8344 23.2413C73.9906 23.2413 73.5691 22.7436 73.5691 21.7487V21.419H73.5823V16.6221H77.9168H78.6954V15.8435V12.7286V11.9825H77.9168H73.5823V7.27771H72.8228H68.7346H67.9561V8.024V21.419V23.1437C67.9561 24.9177 68.5181 26.2479 69.6432 27.1346C70.7676 28.0218 72.1415 28.4648 73.7638 28.4648C74.8019 28.4648 75.7804 28.297 76.7001 27.9619C77.6193 27.6268 78.3493 27.1456 78.8901 26.518C79.1398 26.3114 79.3735 25.7831 79.3735 25.7831Z" fill="#241239"/>
<path fill-rule="evenodd" clip-rule="evenodd" d="M63.9377 13.8154C62.4016 12.2693 60.5633 11.4957 58.422 11.4957C56.5799 11.4957 55.1427 12.0491 54.1068 13.1514V11.9824H53.3281H49.2724H48.5259V12.7287V34.4996V35.2461H49.2724H53.3281H54.1068V20.0288C54.1068 19.1203 54.4199 18.3417 55.0476 17.6927C55.6747 17.044 56.4426 16.7194 57.3513 16.7194C58.2596 16.7194 59.0274 17.044 59.655 17.6927C60.282 18.3417 60.5958 19.1203 60.5958 20.0288C60.5958 20.9374 60.282 21.7161 59.655 22.365C59.0274 23.014 58.2596 23.3383 57.3513 23.3383C56.9432 23.3383 56.5336 23.3146 56.184 23.2681V28.289C56.7995 28.4483 57.5117 28.5297 58.3246 28.5297C60.5092 28.5297 62.3749 27.7404 63.9216 26.161C65.4678 24.5824 66.2413 22.5165 66.2413 19.9641C66.2413 17.4119 65.4734 15.3622 63.9377 13.8154Z" fill="#241239"/>
<path fill-rule="evenodd" clip-rule="evenodd" d="M95.7211 29.4115C91.5878 29.4115 88.3467 28.3654 86.7308 27.7141C85.2565 27.12 84.3433 25.661 84.4544 24.0799L85.2586 10.9603L89.2538 11.2047L88.4634 24.098C90.815 25.0033 96.4411 26.5573 102.98 24.0705C102.88 22.6237 102.356 15.0254 102.05 10.5896C98.0531 12.603 94.6825 12.7586 92.1921 11.0143C90.6298 9.92009 89.7324 8.16057 89.7298 6.18687C89.7272 4.15408 90.6891 2.2621 92.3029 1.12579C93.8007 0.0709119 95.5662 -0.256692 97.2737 0.202501C99.1672 0.711996 100.827 2.16611 101.713 4.09268L98.0759 5.76255C97.6865 4.91594 96.9803 4.26506 96.2329 4.064C95.6704 3.91281 95.1392 4.02076 94.6086 4.39448C94.0673 4.77585 93.7316 5.4606 93.7324 6.18182C93.7329 6.56593 93.8318 7.27893 94.4896 7.73957C96.0184 8.81044 99.0899 7.99712 102.706 5.56394C103.242 5.20305 103.92 5.12334 104.526 5.34991C105.732 5.80118 105.799 6.77852 105.871 7.81321L106.989 24.0277C107.113 25.6318 106.192 27.1047 104.694 27.6955C101.462 28.9707 98.4034 29.4115 95.7211 29.4115Z" fill="#23CE6B"/>
</svg>
